<?xml version="1.0" encoding="iso-8859-1"?>
<!-- Generator: Adobe Illustrator 19.0.0, SVG Export Plug-In . SVG Version: 6.00 Build 0)  -->
<svg version="1.1" id="Capa_1" xmlns="http://www.w3.org/2000/svg" xmlns:xlink="http://www.w3.org/1999/xlink" x="0px" y="0px"
	 viewBox="0 0 512 512" style="enable-background:new 0 0 512 512;" xml:space="preserve">
<g>
	<g>
		<path d="M504.485,180.352h-86.091L272.249,92.664c4.491-4.289,7.297-10.329,7.297-17.016c0-12.983-10.563-23.546-23.546-23.546
			s-23.546,10.563-23.546,23.546c0,6.687,2.806,12.727,7.297,17.016L93.606,180.352H7.515c-4.15,0-7.515,3.365-7.515,7.515v264.517
			c0,4.15,3.365,7.515,7.515,7.515h496.971c4.15,0,7.515-3.365,7.515-7.515V187.867C512,183.717,508.635,180.352,504.485,180.352z
			 M256,67.131c4.696,0,8.517,3.82,8.517,8.517s-3.82,8.517-8.517,8.517s-8.517-3.82-8.517-8.517S251.304,67.131,256,67.131z
			 M496.971,444.869H15.029V195.382h269.526c4.15,0,7.515-3.365,7.515-7.515c0-4.15-3.365-7.515-7.515-7.515H122.818L256,100.443
			l133.182,79.909h-68.055c-4.15,0-7.515,3.365-7.515,7.515c0,4.15,3.365,7.515,7.515,7.515h175.843V444.869z"/>
	</g>
</g>
<g>
	<g>
		<path d="M468.562,213.483c-3.176,1.894-4.45,5.912-3.083,9.322c1.243,2.948,4.286,4.862,7.496,4.616
			c3.032-0.232,5.667-2.307,6.599-5.2C481.646,215.783,474.397,210.001,468.562,213.483z"/>
	</g>
</g>
<g>
	<g>
		<path d="M476.953,414.33c-5.523-4.188-13.531,1.105-11.812,7.839c0.841,3.286,3.887,5.666,7.282,5.666
			c3.175,0,6.07-2.077,7.103-5.072C480.574,419.726,479.51,416.269,476.953,414.33z"/>
	</g>
</g>
<g>
	<g>
		<path d="M46.521,217.054c-2.528-5.993-11.396-6.09-13.887,0c-1.246,3.047-0.342,6.63,2.211,8.707
			c2.419,1.967,5.915,2.222,8.593,0.616C46.611,224.474,47.89,220.47,46.521,217.054z"/>
	</g>
</g>
<g>
	<g>
		<path d="M46.511,417.445c-1.106-2.763-3.915-4.592-6.868-4.631c-3.222-0.042-6.199,2.086-7.196,5.15
			c-0.954,2.93-0.017,6.202,2.366,8.163c2.505,2.062,6.16,2.252,8.872,0.483C46.664,424.664,47.901,420.735,46.511,417.445z"/>
	</g>
</g>
<g>
	<g>
		<path d="M366.215,368.72h-62.622V256c0-4.15-3.365-7.515-7.515-7.515c-4.15,0-7.515,3.365-7.515,7.515v120.235
			c0,4.15,3.365,7.515,7.515,7.515h70.137c4.15,0,7.515-3.365,7.515-7.515C373.73,372.085,370.365,368.72,366.215,368.72z"/>
	</g>
</g>
<g>
	<g>
		<path d="M262.937,373.344l-50.098-120.235c-2.514-6.037-11.358-6.038-13.873,0l-50.098,120.235
			c-1.596,3.831,0.215,8.231,4.046,9.827c3.83,1.596,8.23-0.214,9.827-4.046l23.122-55.493h40.078l23.122,55.493
			c1.68,4.033,6.594,5.787,10.459,3.746C262.909,381.083,264.407,376.875,262.937,373.344z M192.125,308.603l13.777-33.065
			l13.777,33.065H192.125z"/>
	</g>
</g>
<g>
	<g>
		<path d="M95.687,308.603h-10.02c-12.431,0-22.544-10.113-22.544-22.544s10.113-22.544,22.544-22.544h40.078
			c4.15,0,7.515-3.365,7.515-7.515c0-4.15-3.365-7.515-7.515-7.515h-22.544v-12.524c0-4.15-3.365-7.515-7.515-7.515
			s-7.515,3.365-7.515,7.515v12.524h-2.505c-20.718,0-37.573,16.855-37.573,37.573c0,20.718,16.855,37.573,37.573,37.573h10.02
			c12.431,0,22.544,10.113,22.544,22.544c0,12.431-10.113,22.544-22.544,22.544H55.609c-4.15,0-7.515,3.365-7.515,7.515
			c0,4.15,3.365,7.515,7.515,7.515h32.564v12.524c0,4.15,3.365,7.515,7.515,7.515s7.515-3.365,7.515-7.515v-13.281
			c17.129-3.491,30.059-18.672,30.059-36.817C133.26,325.458,116.405,308.603,95.687,308.603z"/>
	</g>
</g>
<g>
	<g>
		<path d="M456.391,368.72h-30.059c-12.431,0-22.544-10.113-22.544-22.544v-22.544h42.583c4.15,0,7.515-3.365,7.515-7.515
			c0-4.15-3.365-7.515-7.515-7.515h-42.583v-22.544c0-12.431,10.113-22.544,22.544-22.544h30.059c4.15,0,7.515-3.365,7.515-7.515
			c0-4.15-3.365-7.515-7.515-7.515h-30.059c-20.719,0-37.573,16.855-37.573,37.573v60.117c0,20.718,16.855,37.573,37.573,37.573
			h30.059c4.15,0,7.515-3.365,7.515-7.515C463.906,372.085,460.542,368.72,456.391,368.72z"/>
	</g>
</g>
<g>
</g>
<g>
</g>
<g>
</g>
<g>
</g>
<g>
</g>
<g>
</g>
<g>
</g>
<g>
</g>
<g>
</g>
<g>
</g>
<g>
</g>
<g>
</g>
<g>
</g>
<g>
</g>
<g>
</g>
</svg>
